<mxfile host="app.diagrams.net" agent="Mozilla/5.0 (Windows NT 10.0; Win64; x64) AppleWebKit/537.36 (KHTML, like Gecko) Chrome/128.0.0.0 Safari/537.36" version="24.7.8">
  <diagram id="WI9T0HZ2pTsCkuznbFz-" name="Page-1">
    <mxGraphModel dx="1709" dy="927" grid="1" gridSize="10" guides="1" tooltips="1" connect="1" arrows="1" fold="1" page="1" pageScale="1" pageWidth="1169" pageHeight="827" math="0" shadow="0">
      <root>
        <mxCell id="0" />
        <mxCell id="1" parent="0" />
        <mxCell id="Zubr4YBnyXkE-RuLKD6q-1" value="On-Premise" style="sketch=0;outlineConnect=0;gradientColor=none;html=1;whiteSpace=wrap;fontSize=12;fontStyle=0;shape=mxgraph.aws4.group;grIcon=mxgraph.aws4.group_on_premise;strokeColor=#AAB7B8;fillColor=none;verticalAlign=top;align=left;spacingLeft=30;fontColor=#AAB7B8;dashed=0;" vertex="1" parent="1">
          <mxGeometry x="40" y="40" width="140" height="160" as="geometry" />
        </mxCell>
        <mxCell id="Zubr4YBnyXkE-RuLKD6q-2" value="" style="outlineConnect=0;dashed=0;verticalLabelPosition=bottom;verticalAlign=top;align=center;html=1;shape=mxgraph.aws3.mysql_db_instance;fillColor=#2E73B8;gradientColor=none;" vertex="1" parent="1">
          <mxGeometry x="50" y="72.75" width="40" height="37.25" as="geometry" />
        </mxCell>
        <mxCell id="Zubr4YBnyXkE-RuLKD6q-3" value="" style="sketch=0;outlineConnect=0;fontColor=#232F3E;gradientColor=none;fillColor=#E7157B;strokeColor=none;dashed=0;verticalLabelPosition=bottom;verticalAlign=top;align=center;html=1;fontSize=12;fontStyle=0;aspect=fixed;pointerEvents=1;shape=mxgraph.aws4.automation;" vertex="1" parent="1">
          <mxGeometry x="90" y="110" width="37.25" height="37.25" as="geometry" />
        </mxCell>
        <mxCell id="Zubr4YBnyXkE-RuLKD6q-4" value="" style="image;aspect=fixed;html=1;points=[];align=center;fontSize=12;image=img/lib/azure2/general/Files.svg;" vertex="1" parent="1">
          <mxGeometry x="127.25" y="147.25" width="36.57" height="40" as="geometry" />
        </mxCell>
        <mxCell id="Zubr4YBnyXkE-RuLKD6q-5" value="" style="image;aspect=fixed;html=1;points=[];align=center;fontSize=12;image=img/lib/azure2/other/ExpressRoute_Direct.svg;" vertex="1" parent="1">
          <mxGeometry x="190" y="120" width="56.67" height="50" as="geometry" />
        </mxCell>
        <mxCell id="Zubr4YBnyXkE-RuLKD6q-7" value="" style="shape=link;html=1;rounded=0;" edge="1" parent="1" target="Zubr4YBnyXkE-RuLKD6q-10">
          <mxGeometry width="100" relative="1" as="geometry">
            <mxPoint x="180" y="180" as="sourcePoint" />
            <mxPoint x="280" y="180" as="targetPoint" />
          </mxGeometry>
        </mxCell>
        <mxCell id="Zubr4YBnyXkE-RuLKD6q-10" value="Cloud" style="html=1;whiteSpace=wrap;strokeColor=none;fillColor=#0079D6;labelPosition=center;verticalLabelPosition=middle;verticalAlign=top;align=center;fontSize=12;outlineConnect=0;spacingTop=-6;fontColor=#FFFFFF;sketch=0;shape=mxgraph.sitemap.cloud;" vertex="1" parent="1">
          <mxGeometry x="250" y="100" width="110" height="160" as="geometry" />
        </mxCell>
        <mxCell id="Zubr4YBnyXkE-RuLKD6q-13" value="" style="image;aspect=fixed;html=1;points=[];align=center;fontSize=12;image=img/lib/azure2/other/ExpressRoute_Direct.svg;" vertex="1" parent="1">
          <mxGeometry x="370" y="120" width="56.67" height="50" as="geometry" />
        </mxCell>
        <mxCell id="Zubr4YBnyXkE-RuLKD6q-14" value="" style="shape=link;html=1;rounded=0;" edge="1" parent="1" target="Zubr4YBnyXkE-RuLKD6q-15">
          <mxGeometry width="100" relative="1" as="geometry">
            <mxPoint x="360" y="180" as="sourcePoint" />
            <mxPoint x="430" y="180" as="targetPoint" />
          </mxGeometry>
        </mxCell>
        <mxCell id="Zubr4YBnyXkE-RuLKD6q-15" value="Remote" style="sketch=0;outlineConnect=0;gradientColor=none;html=1;whiteSpace=wrap;fontSize=12;fontStyle=0;shape=mxgraph.aws4.group;grIcon=mxgraph.aws4.group_on_premise;strokeColor=#AAB7B8;fillColor=none;verticalAlign=top;align=left;spacingLeft=30;fontColor=#AAB7B8;dashed=0;" vertex="1" parent="1">
          <mxGeometry x="440" y="100" width="140" height="160" as="geometry" />
        </mxCell>
        <mxCell id="Zubr4YBnyXkE-RuLKD6q-16" value="" style="verticalLabelPosition=bottom;html=1;verticalAlign=top;align=center;strokeColor=none;fillColor=#00BEF2;shape=mxgraph.azure.storage_blob;" vertex="1" parent="1">
          <mxGeometry x="260" y="147.25" width="50" height="45" as="geometry" />
        </mxCell>
        <mxCell id="Zubr4YBnyXkE-RuLKD6q-17" value="" style="image;aspect=fixed;html=1;points=[];align=center;fontSize=12;image=img/lib/azure2/general/Storage_Azure_Files.svg;" vertex="1" parent="1">
          <mxGeometry x="290" y="199.88" width="64" height="52" as="geometry" />
        </mxCell>
        <mxCell id="Zubr4YBnyXkE-RuLKD6q-18" value="Express Routing" style="text;strokeColor=none;fillColor=none;html=1;fontSize=24;fontStyle=1;verticalAlign=middle;align=center;" vertex="1" parent="1">
          <mxGeometry x="203.32999999999998" y="40" width="203.33" height="40" as="geometry" />
        </mxCell>
        <mxCell id="Zubr4YBnyXkE-RuLKD6q-19" value="" style="outlineConnect=0;dashed=0;verticalLabelPosition=bottom;verticalAlign=top;align=center;html=1;shape=mxgraph.aws3.mysql_db_instance;fillColor=#2E73B8;gradientColor=none;" vertex="1" parent="1">
          <mxGeometry x="523.82" y="207.25" width="40" height="37.25" as="geometry" />
        </mxCell>
        <mxCell id="Zubr4YBnyXkE-RuLKD6q-20" value="" style="sketch=0;outlineConnect=0;fontColor=#232F3E;gradientColor=none;fillColor=#E7157B;strokeColor=none;dashed=0;verticalLabelPosition=bottom;verticalAlign=top;align=center;html=1;fontSize=12;fontStyle=0;aspect=fixed;pointerEvents=1;shape=mxgraph.aws4.automation;" vertex="1" parent="1">
          <mxGeometry x="486.57" y="170" width="37.25" height="37.25" as="geometry" />
        </mxCell>
        <mxCell id="Zubr4YBnyXkE-RuLKD6q-21" value="" style="image;aspect=fixed;html=1;points=[];align=center;fontSize=12;image=img/lib/azure2/general/Files.svg;" vertex="1" parent="1">
          <mxGeometry x="450" y="130" width="36.57" height="40" as="geometry" />
        </mxCell>
      </root>
    </mxGraphModel>
  </diagram>
</mxfile>
